<svg
  width="192"
  height="192"
  viewBox="0 0 192 192"
  fill="none"
  xmlns="http://www.w3.org/2000/svg"
>
  <path
    fill-rule="evenodd"
    clip-rule="evenodd"
    d="M 160.3 50 C 160.4 50 160.5 50 160.7 50 H 163.1 C 167 50 169.8 53.6 168.8 57.4 L 149.5 131.2 C 148.5 135.1 145 137.8 140.9 137.8 L 138.2 137.8 C 138.1 137.8 138 137.8 137.8 137.8 C 135.2 137.8 133.3 137.8 131.7 137.2 C 130.3 136.6 129 135.7 128.1 134.5 C 127 133.1 126.5 131.3 125.7 128.8 C 125.7 128.6 125.6 128.5 125.6 128.4 L 117.1 99.5 C 117.1 99.3 117 99.2 117 99.1 C 116.3 97 114.4 95.5 112.1 95.4 C 112 95.4 112 95.4 111.7 95.4 C 111.5 95.4 111.4 95.4 111.4 95.4 C 109.1 95.5 107.1 97 106.4 99.2 C 106.4 99.3 106.4 99.4 106.3 99.6 L 97.8 131.1 C 97.8 131.3 97.7 131.4 97.7 131.5 C 96.6 135.2 93.3 137.7 89.4 137.8 C 89.3 137.8 89.2 137.8 89 137.8 H 89 C 88.8 137.8 88.7 137.8 88.6 137.8 C 84.8 137.8 81.4 135.2 80.3 131.6 C 80.3 131.5 80.2 131.4 80.2 131.2 L 60.2 60.5 C 59.3 57.4 59 56.4 58.4 55.6 C 57.8 54.9 57.1 54.3 56.2 53.9 C 55.3 53.6 54.2 53.6 51 53.6 H 49.7 L 27.5 134.3 H 28.4 C 31.7 134.3 32.8 134.3 33.7 133.9 C 34.6 133.5 35.3 132.9 35.9 132.2 C 36.5 131.4 36.8 130.3 37.7 127.2 L 41 114.4 L 44.5 115.3 L 41.1 128.1 C 41.1 128.2 41 128.3 41 128.4 C 40.3 131.1 39.8 132.9 38.7 134.4 C 37.8 135.6 36.5 136.6 35.1 137.2 C 33.4 137.8 31.5 137.8 28.8 137.8 C 28.6 137.8 28.5 137.8 28.4 137.8 H 25.2 C 21.1 137.8 18.1 133.9 19.2 130 L 39.5 56.7 C 39.6 56.5 39.6 56.4 39.7 56.3 C 40.8 52.6 44.1 50.1 47.9 50 C 48 50 48.2 50 48.3 50 L 51 50 C 51.1 50 51.2 50 51.3 50 C 54.1 50 55.9 50 57.6 50.7 C 59 51.2 60.2 52.2 61.2 53.4 C 62.3 54.8 62.8 56.6 63.5 59.2 C 63.5 59.3 63.6 59.4 63.6 59.6 L 83.6 130.2 C 83.7 130.4 83.7 130.5 83.7 130.5 C 84.4 132.7 86.4 134.2 88.7 134.3 C 88.7 134.3 88.8 134.3 89 134.3 C 89.2 134.3 89.3 134.3 89.3 134.3 C 91.6 134.2 93.6 132.7 94.3 130.5 C 94.3 130.4 94.3 130.4 94.4 130.2 L 102.9 98.7 C 102.9 98.5 103 98.4 103 98.2 C 104.1 94.6 107.4 92 111.3 91.9 C 111.4 91.9 111.5 91.9 111.7 91.9 H 111.8 C 111.9 91.9 112.1 91.9 112.2 91.9 C 116 92 119.2 94.5 120.4 98 C 120.4 98.2 120.5 98.3 120.5 98.5 L 129 127.4 C 129.9 130.5 130.3 131.5 130.8 132.3 C 131.4 133 132.2 133.6 133 133.9 C 133.9 134.3 135 134.3 138.2 134.3 H 139.8 L 161 53.6 H 160.7 C 157.4 53.6 156.2 53.6 155.3 54 C 154.5 54.3 153.7 54.9 153.1 55.7 C 152.5 56.4 152.2 57.5 151.4 60.7 L 148.1 73.2 L 144.7 72.3 L 148 59.8 C 148 59.7 148 59.6 148.1 59.4 C 148.8 56.8 149.2 54.9 150.3 53.5 C 151.3 52.3 152.5 51.3 154 50.7 C 155.6 50 157.5 50 160.3 50 Z"
    fill="white"
  />
  <path
    d="M 46.9 53.6 H 51 C 54.2 53.6 55.3 53.6 56.2 53.9 C 57.1 54.3 57.8 54.9 58.4 55.6 C 59 56.4 59.3 57.4 60.2 60.5 L 80.2 131.2 C 80.2 131.4 80.3 131.5 80.3 131.6 C 81.4 135.2 84.8 137.8 88.6 137.8 C 88.7 137.8 88.8 137.8 89 137.8 H 89 C 89.2 137.8 89.3 137.8 89.4 137.8 C 93.3 137.7 96.6 135.2 97.7 131.5 C 97.7 131.4 97.8 131.3 97.8 131.1 L 97.8 131.1 L 106.3 99.6 C 106.4 99.4 106.4 99.3 106.4 99.2 C 107.1 97 109.1 95.5 111.4 95.4 C 111.4 95.4 111.5 95.4 111.7 95.4 C 112 95.4 112 95.4 112.1 95.4 C 114.4 95.5 116.3 97 117 99.1 C 117 99.2 117.1 99.3 117.1 99.5 L 125.7 128.8 C 126.5 131.3 127 133.1 128.1 134.5 C 129 135.7 130.3 136.6 131.7 137.2 C 133.3 137.8 135.2 137.8 137.8 137.8 L 140.9 137.8 C 145 137.8 148.5 135.1 149.5 131.2 L 168.8 57.4 C 169.8 53.6 167 50 163.1 50 L 160.3 50 C 157.5 50 155.6 50 154 50.7 C 152.5 51.3 151.3 52.3 150.3 53.5 C 149.2 54.9 148.8 56.8 148.1 59.4 L 144.7 72.3 L 148.1 73.2 M 41 114.4 L 44.5 115.3 L 41 128.4 C 40.3 131.1 39.8 132.9 38.7 134.4 C 37.8 135.6 36.5 136.6 35.1 137.2 C 33.4 137.8 31.5 137.8 28.8 137.8 L 25.2 137.8 C 21.1 137.8 18.1 133.9 19.2 130 L 39.5 56.7 C 39.6 56.5 39.6 56.4 39.7 56.3 C 40.8 52.6 44.1 50.1 47.9 50 C 48 50 48.2 50 48.3 50 L 51.3 50 C 54.1 50 55.9 50 57.6 50.7 C 59 51.2 60.2 52.2 61.2 53.4 C 62.3 54.8 62.8 56.6 63.5 59.2 L 83.6 130.2 C 83.7 130.4 83.7 130.5 83.7 130.5 C 84.4 132.7 86.4 134.2 88.7 134.3 C 88.7 134.3 88.8 134.3 89 134.3 C 89.2 134.3 89.3 134.3 89.3 134.3 C 91.6 134.2 93.6 132.7 94.3 130.5 C 94.3 130.4 94.3 130.4 94.4 130.2 L 102.9 98.7 C 102.9 98.5 103 98.3 103 98.2 C 104.1 94.6 107.4 92 111.3 91.9 C 111.4 91.9 111.5 91.9 111.7 91.9 H 111.8 C 111.9 91.9 112.1 91.9 112.2 91.9 C 116 92 119.2 94.5 120.4 98 C 120.4 98.2 120.5 98.3 120.5 98.5 L 129 127.4 C 129.9 130.5 130.3 131.5 130.8 132.3 C 131.4 133 132.2 133.6 133 133.9 C 133.9 134.3 135 134.3 138.2 134.3 L 143.5 132.3"
    stroke="white"
    stroke-width="6"
  />
</svg>
